{
  "asset": {
    "version": "2.0",
    "generator": "THREE.GLTFExporter"
  },
  "scenes": [
    {
      "nodes": [
        0
      ]
    }
  ],
  "scene": 0,
  "nodes": [
    {
      "children": [
        16
      ],
      "matrix": [
        0.01,
        0,
        0,
        0,
        0,
        0.01,
        0,
        0,
        0,
        0,
        0.01,
        0,
        0,
        0,
        0,
        1
      ]
    },
    {
      "matrix": [
        1.013091186670397,
        0,
        0,
        0,
        0,
        1.024473966493923,
        0,
        0,
        0,
        0,
        1.013091186670397,
        0,
        0,
        -2.220446049250313e-16,
        0,
        1
      ],
      "name": "cone",
      "mesh": 0
    },
    {
      "matrix": [
        3.6244711315883635,
        0,
        0,
        0,
        0,
        3.665194570317695,
        0,
        0,
        0,
        0,
        3.6244711315883635,
        0,
        0,
        0,
        0,
        1
      ],
      "name": "sun",
      "mesh": 1
    },
    {
      "matrix": [
        1,
        0,
        0,
        0,
        0,
        1,
        0,
        0,
        0,
        0,
        1,
        0,
        0,
        250,
        0,
        1
      ],
      "mesh": 0
    },
    {
      "matrix": [
        0.6234898018587336,
        -0.7818314824680298,
        0,
        0,
        0.7818314824680298,
        0.6234898018587336,
        0,
        0,
        0,
        0,
        1,
        0,
        195.45787061700744,
        155.8724504646834,
        0,
        1
      ],
      "mesh": 0
    },
    {
      "matrix": [
        -0.22252093395631434,
        -0.9749279121818237,
        0,
        0,
        0.9749279121818237,
        -0.22252093395631434,
        0,
        0,
        0,
        0,
        1,
        0,
        243.73197804545595,
        -55.63023348907857,
        0,
        1
      ],
      "mesh": 0
    },
    {
      "matrix": [
        -0.9009688679024193,
        -0.43388373911755823,
        0,
        0,
        0.43388373911755823,
        -0.9009688679024193,
        0,
        0,
        0,
        0,
        1,
        0,
        108.47093477938955,
        -225.24221697560478,
        0,
        1
      ],
      "mesh": 0
    },
    {
      "matrix": [
        -0.9009688679024193,
        0.433883739117558,
        0,
        0,
        -0.433883739117558,
        -0.9009688679024193,
        0,
        0,
        0,
        0,
        1,
        0,
        -108.47093477938951,
        -225.2422169756048,
        0,
        1
      ],
      "mesh": 0
    },
    {
      "matrix": [
        -0.22252093395631478,
        0.9749279121818236,
        0,
        0,
        -0.9749279121818236,
        -0.22252093395631478,
        0,
        0,
        0,
        0,
        1,
        0,
        -243.73197804545592,
        -55.63023348907867,
        0,
        1
      ],
      "mesh": 0
    },
    {
      "matrix": [
        0.6234898018587334,
        0.7818314824680299,
        0,
        0,
        -0.7818314824680299,
        0.6234898018587334,
        0,
        0,
        0,
        0,
        1,
        0,
        -195.45787061700747,
        155.8724504646833,
        0,
        1
      ],
      "mesh": 0
    },
    {
      "matrix": [
        1.013091186670397,
        0,
        0,
        0,
        0,
        1.024473966493923,
        0,
        0,
        0,
        0,
        1.013091186670397,
        0,
        0,
        -2.220446049250313e-16,
        0,
        1
      ],
      "children": [
        3,
        4,
        5,
        6,
        7,
        8,
        9
      ]
    },
    {
      "matrix": [
        0.3744404193238114,
        0,
        0,
        0,
        0,
        0.37444041932381156,
        0,
        0,
        0,
        0,
        0.3744404193238114,
        0,
        -40.39632486054829,
        31.571406200271152,
        -28.764937708948345,
        1
      ],
      "name": "Sun",
      "children": [
        1,
        2,
        10
      ]
    },
    {
      "matrix": [
        0.5854061277714288,
        0,
        0,
        0,
        0,
        0.5859933429993033,
        0,
        0,
        0,
        0,
        0.5859933429993033,
        0,
        2.040370200679759,
        -41.88205783367814,
        28.90210124412285,
        1
      ],
      "name": "Cloud",
      "mesh": 2
    },
    {
      "name": "Cloudsun",
      "children": [
        11,
        12
      ]
    },
    {
      "matrix": [
        1,
        0,
        0,
        0,
        0,
        1,
        -6.123233995736766e-17,
        0,
        0,
        6.123233995736766e-17,
        1,
        0,
        0,
        1.0244339091935534e-13,
        540.3475372569529,
        1
      ],
      "name": "Personal Camera",
      "camera": 0
    },
    {
      "matrix": [
        1,
        0,
        0,
        0,
        0,
        1,
        0,
        0,
        0,
        0,
        1,
        0,
        0,
        1,
        0,
        1
      ],
      "name": "Default Ambient Light"
    },
    {
      "name": "Scene 1",
      "children": [
        13,
        14,
        15
      ]
    }
  ],
  "bufferViews": [
    {
      "buffer": 0,
      "byteOffset": 0,
      "byteLength": 3876,
      "target": 34962,
      "byteStride": 12
    },
    {
      "buffer": 0,
      "byteOffset": 3876,
      "byteLength": 3876,
      "target": 34962,
      "byteStride": 12
    },
    {
      "buffer": 0,
      "byteOffset": 7752,
      "byteLength": 2584,
      "target": 34962,
      "byteStride": 8
    },
    {
      "buffer": 0,
      "byteOffset": 10336,
      "byteLength": 3360,
      "target": 34963
    },
    {
      "buffer": 0,
      "byteOffset": 13696,
      "byteLength": 13068,
      "target": 34962,
      "byteStride": 12
    },
    {
      "buffer": 0,
      "byteOffset": 26764,
      "byteLength": 13068,
      "target": 34962,
      "byteStride": 12
    },
    {
      "buffer": 0,
      "byteOffset": 39832,
      "byteLength": 8712,
      "target": 34962,
      "byteStride": 8
    },
    {
      "buffer": 0,
      "byteOffset": 48544,
      "byteLength": 11904,
      "target": 34963
    },
    {
      "buffer": 0,
      "byteOffset": 60448,
      "byteLength": 86016,
      "target": 34962,
      "byteStride": 12
    },
    {
      "buffer": 0,
      "byteOffset": 146464,
      "byteLength": 86016,
      "target": 34962,
      "byteStride": 12
    },
    {
      "buffer": 0,
      "byteOffset": 232480,
      "byteLength": 43008,
      "target": 34963
    }
  ],
  "buffers": [
    {
      "byteLength": 275488,
      "uri": "data:application/octet-stream;base64,"
    }
  ],
  "accessors": [
    {
      "bufferView": 0,
      "componentType": 5126,
      "count": 323,
      "max": [
        31.60205841064453,
        37.5,
        31.60205841064453
      ],
      "min": [
        -31.60205841064453,
        -37.5,
        -31.60205841064453
      ],
      "type": "VEC3"
    },
    {
      "bufferView": 1,
      "componentType": 5126,
      "count": 323,
      "max": [
        0.9946982264518738,
        1,
        0.9946982264518738
      ],
      "min": [
        -0.9946982264518738,
        -1,
        -0.9946982264518738
      ],
      "type": "VEC3"
    },
    {
      "bufferView": 2,
      "componentType": 5126,
      "count": 323,
      "max": [
        1,
        1
      ],
      "min": [
        0,
        0
      ],
      "type": "VEC2"
    },
    {
      "bufferView": 3,
      "componentType": 5123,
      "count": 1680,
      "max": [
        321
      ],
      "min": [
        0
      ],
      "type": "SCALAR"
    },
    {
      "bufferView": 4,
      "componentType": 5126,
      "count": 1089,
      "max": [
        50,
        50,
        50
      ],
      "min": [
        -50,
        -50,
        -50
      ],
      "type": "VEC3"
    },
    {
      "bufferView": 5,
      "componentType": 5126,
      "count": 1089,
      "max": [
        1,
        1,
        1
      ],
      "min": [
        -1,
        -1,
        -1
      ],
      "type": "VEC3"
    },
    {
      "bufferView": 6,
      "componentType": 5126,
      "count": 1089,
      "max": [
        1.015625,
        1
      ],
      "min": [
        -0.015625,
        0
      ],
      "type": "VEC2"
    },
    {
      "bufferView": 7,
      "componentType": 5123,
      "count": 5952,
      "max": [
        1088
      ],
      "min": [
        0
      ],
      "type": "SCALAR"
    },
    {
      "bufferView": 8,
      "componentType": 5126,
      "count": 7168,
      "max": [
        180.20323181152344,
        126.4609375,
        101.75659942626953
      ],
      "min": [
        -185.32383728027344,
        -91.18647003173828,
        -101.75659942626953
      ],
      "type": "VEC3"
    },
    {
      "bufferView": 9,
      "componentType": 5126,
      "count": 7168,
      "max": [
        0.9992170929908752,
        0.9999400973320007,
        0.999946653842926
      ],
      "min": [
        -0.9982331991195679,
        -0.9999024868011475,
        -0.9999826550483704
      ],
      "type": "VEC3"
    },
    {
      "bufferView": 10,
      "componentType": 5125,
      "count": 10752,
      "max": [
        7167
      ],
      "min": [
        0
      ],
      "type": "SCALAR"
    }
  ],
  "meshes": [
    {
      "primitives": [
        {
          "mode": 4,
          "attributes": {
            "POSITION": 0,
            "NORMAL": 1,
            "TEXCOORD_0": 2
          },
          "extras": {
            "parameters": {
              "width": 75,
              "radialSegments": 16,
              "heightSegments": 4,
              "openEnded": false,
              "thetaStart": 0,
              "thetaLength": 360,
              "cornerRadiusTop": 7,
              "cornerRadiusBottom": 12,
              "cornerSegments": 4,
              "height": 75,
              "depth": 75,
              "type": "ConeGeometry"
            },
            "type": "ConeGeometry"
          },
          "indices": 3
        }
      ]
    },
    {
      "primitives": [
        {
          "mode": 4,
          "attributes": {
            "POSITION": 4,
            "NORMAL": 5,
            "TEXCOORD_0": 6
          },
          "extras": {
            "parameters": {
              "width": 100,
              "widthSegments": 32,
              "heightSegments": 32,
              "phiStart": 0,
              "phiLength": 6.283185307179586,
              "thetaStart": 0,
              "thetaLength": 180,
              "height": 100,
              "depth": 100,
              "type": "SphereGeometry"
            },
            "type": "SphereGeometry"
          },
          "indices": 7
        }
      ]
    },
    {
      "primitives": [
        {
          "mode": 4,
          "attributes": {
            "POSITION": 8,
            "NORMAL": 9
          },
          "extras": {
            "type": "SubdivGeometry",
            "parameters": {
              "width": 384.41676330566406,
              "height": 229.72598266601562,
              "depth": 231.1298065185547
            }
          },
          "indices": 10
        }
      ]
    }
  ],
  "cameras": [
    {
      "type": "perspective",
      "perspective": {
        "aspectRatio": 2.006269592476489,
        "yfov": 0.7853981633974483,
        "zfar": 100000,
        "znear": 70
      },
      "name": "Camera"
    }
  ]
}