{
  "asset": {
    "version": "2.0",
    "generator": "THREE.GLTFExporter"
  },
  "scenes": [
    {
      "nodes": [
        0
      ]
    }
  ],
  "scene": 0,
  "nodes": [
    {
      "children": [
        14
      ],
      "matrix": [
        0.01,
        0,
        0,
        0,
        0,
        0.01,
        0,
        0,
        0,
        0,
        0.01,
        0,
        0,
        0,
        0,
        1
      ]
    },
    {
      "matrix": [
        0.4557176259554503,
        0,
        0,
        0,
        0,
        0.4608379285167621,
        0,
        0,
        0,
        0,
        0.4557176259554503,
        0,
        0,
        -2.220446049250313e-16,
        0,
        1
      ],
      "name": "cone",
      "mesh": 0
    },
    {
      "matrix": [
        1.6303916184090694,
        0,
        0,
        0,
        0,
        1.6487101953176957,
        0,
        0,
        0,
        0,
        1.6303916184090694,
        0,
        0,
        0,
        0,
        1
      ],
      "name": "sun",
      "mesh": 1
    },
    {
      "matrix": [
        1,
        0,
        0,
        0,
        0,
        1,
        0,
        0,
        0,
        0,
        1,
        0,
        0,
        250,
        0,
        1
      ],
      "mesh": 0
    },
    {
      "matrix": [
        0.6234898018587336,
        -0.7818314824680298,
        0,
        0,
        0.7818314824680298,
        0.6234898018587336,
        0,
        0,
        0,
        0,
        1,
        0,
        195.45787061700744,
        155.8724504646834,
        0,
        1
      ],
      "mesh": 0
    },
    {
      "matrix": [
        -0.22252093395631434,
        -0.9749279121818237,
        0,
        0,
        0.9749279121818237,
        -0.22252093395631434,
        0,
        0,
        0,
        0,
        1,
        0,
        243.73197804545595,
        -55.63023348907857,
        0,
        1
      ],
      "mesh": 0
    },
    {
      "matrix": [
        -0.9009688679024193,
        -0.43388373911755823,
        0,
        0,
        0.43388373911755823,
        -0.9009688679024193,
        0,
        0,
        0,
        0,
        1,
        0,
        108.47093477938955,
        -225.24221697560478,
        0,
        1
      ],
      "mesh": 0
    },
    {
      "matrix": [
        -0.9009688679024193,
        0.433883739117558,
        0,
        0,
        -0.433883739117558,
        -0.9009688679024193,
        0,
        0,
        0,
        0,
        1,
        0,
        -108.47093477938951,
        -225.2422169756048,
        0,
        1
      ],
      "mesh": 0
    },
    {
      "matrix": [
        -0.22252093395631478,
        0.9749279121818236,
        0,
        0,
        -0.9749279121818236,
        -0.22252093395631478,
        0,
        0,
        0,
        0,
        1,
        0,
        -243.73197804545592,
        -55.63023348907867,
        0,
        1
      ],
      "mesh": 0
    },
    {
      "matrix": [
        0.6234898018587334,
        0.7818314824680299,
        0,
        0,
        -0.7818314824680299,
        0.6234898018587334,
        0,
        0,
        0,
        0,
        1,
        0,
        -195.45787061700747,
        155.8724504646833,
        0,
        1
      ],
      "mesh": 0
    },
    {
      "matrix": [
        0.4557176259554503,
        0,
        0,
        0,
        0,
        0.4608379285167621,
        0,
        0,
        0,
        0,
        0.4557176259554503,
        0,
        0,
        -2.220446049250313e-16,
        0,
        1
      ],
      "children": [
        3,
        4,
        5,
        6,
        7,
        8,
        9
      ]
    },
    {
      "matrix": [
        -0.995263003917024,
        1.3437058564432275e-16,
        -0.09721909809323617,
        0,
        1.218845652056763e-16,
        1,
        1.3437058564432275e-16,
        0,
        0.09721909809323617,
        1.218845652056763e-16,
        -0.995263003917024,
        0,
        0,
        0,
        2.465190328815662e-32,
        1
      ],
      "name": "Sun",
      "children": [
        1,
        2,
        10
      ]
    },
    {
      "matrix": [
        1,
        0,
        0,
        0,
        0,
        1,
        0,
        0,
        0,
        0,
        1,
        0,
        0,
        6.935710834679129e-14,
        540.3475372569529,
        1
      ],
      "name": "Personal Camera",
      "camera": 0
    },
    {
      "matrix": [
        1,
        0,
        0,
        0,
        0,
        1,
        0,
        0,
        0,
        0,
        1,
        0,
        0,
        1,
        0,
        1
      ],
      "name": "Default Ambient Light"
    },
    {
      "name": "Scene 1",
      "children": [
        11,
        12,
        13
      ]
    }
  ],
  "bufferViews": [
    {
      "buffer": 0,
      "byteOffset": 0,
      "byteLength": 3876,
      "target": 34962,
      "byteStride": 12
    },
    {
      "buffer": 0,
      "byteOffset": 3876,
      "byteLength": 3876,
      "target": 34962,
      "byteStride": 12
    },
    {
      "buffer": 0,
      "byteOffset": 7752,
      "byteLength": 2584,
      "target": 34962,
      "byteStride": 8
    },
    {
      "buffer": 0,
      "byteOffset": 10336,
      "byteLength": 3360,
      "target": 34963
    },
    {
      "buffer": 0,
      "byteOffset": 13696,
      "byteLength": 13068,
      "target": 34962,
      "byteStride": 12
    },
    {
      "buffer": 0,
      "byteOffset": 26764,
      "byteLength": 13068,
      "target": 34962,
      "byteStride": 12
    },
    {
      "buffer": 0,
      "byteOffset": 39832,
      "byteLength": 8712,
      "target": 34962,
      "byteStride": 8
    },
    {
      "buffer": 0,
      "byteOffset": 48544,
      "byteLength": 11904,
      "target": 34963
    }
  ],
  "buffers": [
    {
      "byteLength": 60448,
      "uri": "data:application/octet-stream;base64,"
    }
  ],
  "accessors": [
    {
      "bufferView": 0,
      "componentType": 5126,
      "count": 323,
      "max": [
        31.60205841064453,
        37.5,
        31.60205841064453
      ],
      "min": [
        -31.60205841064453,
        -37.5,
        -31.60205841064453
      ],
      "type": "VEC3"
    },
    {
      "bufferView": 1,
      "componentType": 5126,
      "count": 323,
      "max": [
        0.9946982264518738,
        1,
        0.9946982264518738
      ],
      "min": [
        -0.9946982264518738,
        -1,
        -0.9946982264518738
      ],
      "type": "VEC3"
    },
    {
      "bufferView": 2,
      "componentType": 5126,
      "count": 323,
      "max": [
        1,
        1
      ],
      "min": [
        0,
        0
      ],
      "type": "VEC2"
    },
    {
      "bufferView": 3,
      "componentType": 5123,
      "count": 1680,
      "max": [
        321
      ],
      "min": [
        0
      ],
      "type": "SCALAR"
    },
    {
      "bufferView": 4,
      "componentType": 5126,
      "count": 1089,
      "max": [
        50,
        50,
        50
      ],
      "min": [
        -50,
        -50,
        -50
      ],
      "type": "VEC3"
    },
    {
      "bufferView": 5,
      "componentType": 5126,
      "count": 1089,
      "max": [
        1,
        1,
        1
      ],
      "min": [
        -1,
        -1,
        -1
      ],
      "type": "VEC3"
    },
    {
      "bufferView": 6,
      "componentType": 5126,
      "count": 1089,
      "max": [
        1.015625,
        1
      ],
      "min": [
        -0.015625,
        0
      ],
      "type": "VEC2"
    },
    {
      "bufferView": 7,
      "componentType": 5123,
      "count": 5952,
      "max": [
        1088
      ],
      "min": [
        0
      ],
      "type": "SCALAR"
    }
  ],
  "meshes": [
    {
      "primitives": [
        {
          "mode": 4,
          "attributes": {
            "POSITION": 0,
            "NORMAL": 1,
            "TEXCOORD_0": 2
          },
          "extras": {
            "parameters": {
              "width": 75,
              "radialSegments": 16,
              "heightSegments": 4,
              "openEnded": false,
              "thetaStart": 0,
              "thetaLength": 360,
              "cornerRadiusTop": 7,
              "cornerRadiusBottom": 12,
              "cornerSegments": 4,
              "height": 75,
              "depth": 75,
              "type": "ConeGeometry"
            },
            "type": "ConeGeometry"
          },
          "indices": 3
        }
      ]
    },
    {
      "primitives": [
        {
          "mode": 4,
          "attributes": {
            "POSITION": 4,
            "NORMAL": 5,
            "TEXCOORD_0": 6
          },
          "extras": {
            "parameters": {
              "width": 100,
              "widthSegments": 32,
              "heightSegments": 32,
              "phiStart": 0,
              "phiLength": 6.283185307179586,
              "thetaStart": 0,
              "thetaLength": 180,
              "height": 100,
              "depth": 100,
              "type": "SphereGeometry"
            },
            "type": "SphereGeometry"
          },
          "indices": 7
        }
      ]
    }
  ],
  "cameras": [
    {
      "type": "perspective",
      "perspective": {
        "aspectRatio": 2.006269592476489,
        "yfov": 0.7853981633974483,
        "zfar": 100000,
        "znear": 70
      },
      "name": "Camera"
    }
  ]
}